<mxfile host="Electron" modified="2023-11-14T08:53:33.390Z" agent="Mozilla/5.0 (X11; Linux x86_64) AppleWebKit/537.36 (KHTML, like Gecko) draw.io/22.0.3 Chrome/114.0.5735.289 Electron/25.8.4 Safari/537.36" etag="Qj8iZj787UIBoPftpYo7" version="22.0.3" type="device">
  <diagram name="Page-1" id="qW39JcqbQnVajfrTr7IP">
    <mxGraphModel dx="1080" dy="1033" grid="1" gridSize="10" guides="1" tooltips="1" connect="1" arrows="1" fold="1" page="1" pageScale="1" pageWidth="850" pageHeight="1100" math="0" shadow="0">
      <root>
        <mxCell id="0" />
        <mxCell id="1" parent="0" />
        <mxCell id="VSIo94IfT64aYqF4Eojm-2" value="" style="shape=mxgraph.pid.vessels.pressurized_vessel;html=1;pointerEvents=1;align=center;verticalLabelPosition=bottom;verticalAlign=top;dashed=0;" parent="1" vertex="1">
          <mxGeometry x="540" y="260" width="120" height="200" as="geometry" />
        </mxCell>
        <mxCell id="VSIo94IfT64aYqF4Eojm-10" value="NS&lt;br style=&quot;font-size: 16px;&quot;&gt;24&lt;br style=&quot;font-size: 16px;&quot;&gt; " style="html=1;outlineConnect=0;align=center;dashed=0;aspect=fixed;shape=mxgraph.pid2inst.discInst;mounting=room;fontSize=16;" parent="1" vertex="1">
          <mxGeometry x="575" y="120" width="50" height="50" as="geometry" />
        </mxCell>
        <mxCell id="VSIo94IfT64aYqF4Eojm-12" value="M" style="dashed=0;outlineConnect=0;align=center;html=1;shape=mxgraph.pid.engines.electric_motor;fontSize=16;aspect=fixed;" parent="1" vertex="1">
          <mxGeometry x="575" y="190" width="50" height="50" as="geometry" />
        </mxCell>
        <mxCell id="VSIo94IfT64aYqF4Eojm-13" value="" style="shape=mxgraph.pid.agitators.agitator_(propeller);html=1;pointerEvents=1;align=center;verticalLabelPosition=bottom;verticalAlign=top;dashed=0;" parent="1" vertex="1">
          <mxGeometry x="554" y="304" width="92" height="132" as="geometry" />
        </mxCell>
        <mxCell id="VSIo94IfT64aYqF4Eojm-14" value="" style="endArrow=none;html=1;rounded=0;entryX=0.5;entryY=1;entryDx=0;entryDy=0;entryPerimeter=0;" parent="1" target="VSIo94IfT64aYqF4Eojm-12" edge="1">
          <mxGeometry width="50" height="50" relative="1" as="geometry">
            <mxPoint x="600" y="304" as="sourcePoint" />
            <mxPoint x="650" y="254" as="targetPoint" />
          </mxGeometry>
        </mxCell>
        <mxCell id="VSIo94IfT64aYqF4Eojm-15" value="" style="endArrow=none;html=1;rounded=0;entryX=0.5;entryY=1;entryDx=0;entryDy=0;exitX=0.5;exitY=0;exitDx=0;exitDy=0;exitPerimeter=0;" parent="1" source="VSIo94IfT64aYqF4Eojm-12" target="VSIo94IfT64aYqF4Eojm-10" edge="1">
          <mxGeometry width="50" height="50" relative="1" as="geometry">
            <mxPoint x="540" y="370" as="sourcePoint" />
            <mxPoint x="590" y="320" as="targetPoint" />
          </mxGeometry>
        </mxCell>
        <mxCell id="VSIo94IfT64aYqF4Eojm-16" value="TA02" style="text;strokeColor=none;align=center;fillColor=none;html=1;verticalAlign=middle;whiteSpace=wrap;rounded=0;" parent="1" vertex="1">
          <mxGeometry x="540" y="274" width="60" height="30" as="geometry" />
        </mxCell>
        <mxCell id="VSIo94IfT64aYqF4Eojm-18" value="" style="ellipse;whiteSpace=wrap;html=1;aspect=fixed;" parent="1" vertex="1">
          <mxGeometry x="636" y="304" width="10" height="10" as="geometry" />
        </mxCell>
        <mxCell id="VSIo94IfT64aYqF4Eojm-19" value="" style="endArrow=none;html=1;rounded=0;exitX=0.5;exitY=0;exitDx=0;exitDy=0;" parent="1" source="VSIo94IfT64aYqF4Eojm-18" target="VSIo94IfT64aYqF4Eojm-17" edge="1">
          <mxGeometry width="50" height="50" relative="1" as="geometry">
            <mxPoint x="610" y="274" as="sourcePoint" />
            <mxPoint x="660" y="224" as="targetPoint" />
            <Array as="points">
              <mxPoint x="640" y="215" />
            </Array>
          </mxGeometry>
        </mxCell>
        <mxCell id="VSIo94IfT64aYqF4Eojm-34" value="" style="verticalLabelPosition=bottom;align=center;html=1;verticalAlign=top;pointerEvents=1;dashed=0;shape=mxgraph.pid2valves.valve;valveType=gate" parent="1" vertex="1">
          <mxGeometry x="480" y="470" width="30" height="20" as="geometry" />
        </mxCell>
        <mxCell id="VSIo94IfT64aYqF4Eojm-35" value="&lt;font style=&quot;font-size: 16px;&quot;&gt;YS&lt;br&gt;23&lt;/font&gt;&lt;br&gt; " style="html=1;outlineConnect=0;align=center;dashed=0;aspect=fixed;shape=mxgraph.pid2inst.discInst;mounting=room" parent="1" vertex="1">
          <mxGeometry x="470" y="345" width="50" height="50" as="geometry" />
        </mxCell>
        <mxCell id="VSIo94IfT64aYqF4Eojm-36" value="" style="group" parent="1" vertex="1" connectable="0">
          <mxGeometry x="660" y="190" width="90" height="60" as="geometry" />
        </mxCell>
        <mxCell id="VSIo94IfT64aYqF4Eojm-17" value="LIR&lt;br style=&quot;font-size: 16px;&quot;&gt;25&lt;br style=&quot;font-size: 16px;&quot;&gt; " style="html=1;outlineConnect=0;align=center;dashed=0;aspect=fixed;shape=mxgraph.pid2inst.discInst;mounting=room;fontSize=16;" parent="VSIo94IfT64aYqF4Eojm-36" vertex="1">
          <mxGeometry width="50" height="50" as="geometry" />
        </mxCell>
        <mxCell id="VSIo94IfT64aYqF4Eojm-20" value="SL" style="text;strokeColor=none;align=center;fillColor=none;html=1;verticalAlign=middle;whiteSpace=wrap;rounded=0;" parent="VSIo94IfT64aYqF4Eojm-36" vertex="1">
          <mxGeometry x="30" y="30" width="60" height="30" as="geometry" />
        </mxCell>
        <mxCell id="LFD4L2ISdzCojTMqFrCi-5" value="C" style="rounded=0;whiteSpace=wrap;html=1;" vertex="1" parent="VSIo94IfT64aYqF4Eojm-36">
          <mxGeometry x="50" width="20" height="20" as="geometry" />
        </mxCell>
        <mxCell id="VSIo94IfT64aYqF4Eojm-37" value="" style="endArrow=none;html=1;rounded=0;exitX=1;exitY=0.512;exitDx=0;exitDy=0;exitPerimeter=0;entryX=0.498;entryY=0.996;entryDx=0;entryDy=0;entryPerimeter=0;strokeWidth=2;" parent="1" source="VSIo94IfT64aYqF4Eojm-34" target="VSIo94IfT64aYqF4Eojm-2" edge="1">
          <mxGeometry width="50" height="50" relative="1" as="geometry">
            <mxPoint x="550" y="430" as="sourcePoint" />
            <mxPoint x="600" y="380" as="targetPoint" />
            <Array as="points">
              <mxPoint x="600" y="480" />
            </Array>
          </mxGeometry>
        </mxCell>
        <mxCell id="VSIo94IfT64aYqF4Eojm-38" value="" style="ellipse;whiteSpace=wrap;html=1;aspect=fixed;" parent="1" vertex="1">
          <mxGeometry x="490" y="450" width="10" height="10" as="geometry" />
        </mxCell>
        <mxCell id="VSIo94IfT64aYqF4Eojm-39" style="edgeStyle=orthogonalEdgeStyle;rounded=0;orthogonalLoop=1;jettySize=auto;html=1;entryX=0.508;entryY=0.485;entryDx=0;entryDy=0;entryPerimeter=0;" parent="1" source="VSIo94IfT64aYqF4Eojm-38" target="VSIo94IfT64aYqF4Eojm-34" edge="1">
          <mxGeometry relative="1" as="geometry" />
        </mxCell>
        <mxCell id="VSIo94IfT64aYqF4Eojm-41" value="" style="endArrow=none;html=1;rounded=0;entryX=0.5;entryY=1;entryDx=0;entryDy=0;exitX=0.5;exitY=0;exitDx=0;exitDy=0;" parent="1" source="VSIo94IfT64aYqF4Eojm-38" target="VSIo94IfT64aYqF4Eojm-35" edge="1">
          <mxGeometry width="50" height="50" relative="1" as="geometry">
            <mxPoint x="470" y="450" as="sourcePoint" />
            <mxPoint x="520" y="400" as="targetPoint" />
          </mxGeometry>
        </mxCell>
        <mxCell id="VSIo94IfT64aYqF4Eojm-42" value="" style="shape=mxgraph.pid.pumps_-_din.hydraulic;html=1;pointerEvents=1;align=center;verticalLabelPosition=bottom;verticalAlign=top;dashed=0;strokeWidth=2;direction=north;" parent="1" vertex="1">
          <mxGeometry x="375" y="450" width="60" height="60" as="geometry" />
        </mxCell>
        <mxCell id="VSIo94IfT64aYqF4Eojm-43" value="&lt;font style=&quot;font-size: 16px;&quot;&gt;NS&lt;br&gt;22.1&lt;/font&gt;&lt;br&gt; " style="html=1;outlineConnect=0;align=center;dashed=0;aspect=fixed;shape=mxgraph.pid2inst.discInst;mounting=room" parent="1" vertex="1">
          <mxGeometry x="380" y="304" width="50" height="50" as="geometry" />
        </mxCell>
        <mxCell id="VSIo94IfT64aYqF4Eojm-44" value="M" style="dashed=0;outlineConnect=0;align=center;html=1;shape=mxgraph.pid.engines.electric_motor;fontSize=16;aspect=fixed;" parent="1" vertex="1">
          <mxGeometry x="380" y="375" width="50" height="50" as="geometry" />
        </mxCell>
        <mxCell id="VSIo94IfT64aYqF4Eojm-45" value="" style="shape=link;html=1;rounded=0;exitX=0.5;exitY=1;exitDx=0;exitDy=0;exitPerimeter=0;entryX=1.003;entryY=0.499;entryDx=0;entryDy=0;entryPerimeter=0;" parent="1" source="VSIo94IfT64aYqF4Eojm-44" target="VSIo94IfT64aYqF4Eojm-42" edge="1">
          <mxGeometry width="100" relative="1" as="geometry">
            <mxPoint x="460" y="465" as="sourcePoint" />
            <mxPoint x="560" y="465" as="targetPoint" />
          </mxGeometry>
        </mxCell>
        <mxCell id="VSIo94IfT64aYqF4Eojm-46" value="" style="endArrow=none;html=1;rounded=0;entryX=0.5;entryY=1;entryDx=0;entryDy=0;exitX=0.5;exitY=0;exitDx=0;exitDy=0;exitPerimeter=0;" parent="1" source="VSIo94IfT64aYqF4Eojm-44" target="VSIo94IfT64aYqF4Eojm-43" edge="1">
          <mxGeometry width="50" height="50" relative="1" as="geometry">
            <mxPoint x="410" y="405" as="sourcePoint" />
            <mxPoint x="460" y="355" as="targetPoint" />
          </mxGeometry>
        </mxCell>
        <mxCell id="VSIo94IfT64aYqF4Eojm-47" value="" style="endArrow=none;html=1;rounded=0;entryX=-0.003;entryY=0.502;entryDx=0;entryDy=0;entryPerimeter=0;exitX=0.5;exitY=1;exitDx=0;exitDy=0;exitPerimeter=0;strokeWidth=2;" parent="1" source="VSIo94IfT64aYqF4Eojm-42" target="VSIo94IfT64aYqF4Eojm-34" edge="1">
          <mxGeometry width="50" height="50" relative="1" as="geometry">
            <mxPoint x="430" y="515" as="sourcePoint" />
            <mxPoint x="480" y="465" as="targetPoint" />
          </mxGeometry>
        </mxCell>
        <mxCell id="VSIo94IfT64aYqF4Eojm-48" value="" style="endArrow=none;html=1;rounded=0;entryX=0.5;entryY=0;entryDx=0;entryDy=0;entryPerimeter=0;strokeWidth=2;" parent="1" target="VSIo94IfT64aYqF4Eojm-42" edge="1">
          <mxGeometry width="50" height="50" relative="1" as="geometry">
            <mxPoint x="310" y="480" as="sourcePoint" />
            <mxPoint x="360" y="470" as="targetPoint" />
          </mxGeometry>
        </mxCell>
        <mxCell id="VSIo94IfT64aYqF4Eojm-49" value="PL22" style="text;strokeColor=none;align=center;fillColor=none;html=1;verticalAlign=middle;whiteSpace=wrap;rounded=0;fontStyle=1" parent="1" vertex="1">
          <mxGeometry x="375" y="510" width="60" height="30" as="geometry" />
        </mxCell>
        <mxCell id="VSIo94IfT64aYqF4Eojm-50" value="CA603" style="text;strokeColor=none;align=center;fillColor=none;html=1;verticalAlign=middle;whiteSpace=wrap;rounded=0;fontStyle=1" parent="1" vertex="1">
          <mxGeometry x="280" y="490" width="60" height="30" as="geometry" />
        </mxCell>
        <mxCell id="VSIo94IfT64aYqF4Eojm-51" value="" style="shape=mxgraph.pid.vessels.pressurized_vessel;html=1;pointerEvents=1;align=center;verticalLabelPosition=bottom;verticalAlign=top;dashed=0;" parent="1" vertex="1">
          <mxGeometry x="590" y="660" width="120" height="200" as="geometry" />
        </mxCell>
        <mxCell id="VSIo94IfT64aYqF4Eojm-57" value="TA01" style="text;strokeColor=none;align=center;fillColor=none;html=1;verticalAlign=middle;whiteSpace=wrap;rounded=0;" parent="1" vertex="1">
          <mxGeometry x="590" y="674" width="60" height="30" as="geometry" />
        </mxCell>
        <mxCell id="VSIo94IfT64aYqF4Eojm-58" value="" style="ellipse;whiteSpace=wrap;html=1;aspect=fixed;" parent="1" vertex="1">
          <mxGeometry x="686" y="704" width="10" height="10" as="geometry" />
        </mxCell>
        <mxCell id="VSIo94IfT64aYqF4Eojm-59" value="" style="endArrow=none;html=1;rounded=0;exitX=0.5;exitY=0;exitDx=0;exitDy=0;" parent="1" source="VSIo94IfT64aYqF4Eojm-58" target="VSIo94IfT64aYqF4Eojm-63" edge="1">
          <mxGeometry width="50" height="50" relative="1" as="geometry">
            <mxPoint x="660" y="674" as="sourcePoint" />
            <mxPoint x="710" y="624" as="targetPoint" />
            <Array as="points">
              <mxPoint x="690" y="615" />
            </Array>
          </mxGeometry>
        </mxCell>
        <mxCell id="VSIo94IfT64aYqF4Eojm-60" value="" style="verticalLabelPosition=bottom;align=center;html=1;verticalAlign=top;pointerEvents=1;dashed=0;shape=mxgraph.pid2valves.valve;valveType=gate" parent="1" vertex="1">
          <mxGeometry x="530" y="870" width="30" height="20" as="geometry" />
        </mxCell>
        <mxCell id="VSIo94IfT64aYqF4Eojm-61" value="&lt;font style=&quot;font-size: 16px;&quot;&gt;&lt;font style=&quot;font-size: 16px;&quot;&gt;YS&lt;br&gt;&lt;/font&gt;13&lt;/font&gt;&lt;br&gt; " style="html=1;outlineConnect=0;align=center;dashed=0;aspect=fixed;shape=mxgraph.pid2inst.discInst;mounting=room" parent="1" vertex="1">
          <mxGeometry x="520" y="745" width="50" height="50" as="geometry" />
        </mxCell>
        <mxCell id="VSIo94IfT64aYqF4Eojm-62" value="" style="group" parent="1" vertex="1" connectable="0">
          <mxGeometry x="670" y="560" width="90" height="60" as="geometry" />
        </mxCell>
        <mxCell id="VSIo94IfT64aYqF4Eojm-63" value="LIR&lt;br style=&quot;font-size: 16px;&quot;&gt;15&lt;br style=&quot;font-size: 16px;&quot;&gt; " style="html=1;outlineConnect=0;align=center;dashed=0;aspect=fixed;shape=mxgraph.pid2inst.discInst;mounting=room;fontSize=16;" parent="VSIo94IfT64aYqF4Eojm-62" vertex="1">
          <mxGeometry x="-4" y="10" width="50" height="50" as="geometry" />
        </mxCell>
        <mxCell id="VSIo94IfT64aYqF4Eojm-64" value="SL" style="text;strokeColor=none;align=center;fillColor=none;html=1;verticalAlign=middle;whiteSpace=wrap;rounded=0;" parent="VSIo94IfT64aYqF4Eojm-62" vertex="1">
          <mxGeometry x="30" y="30" width="60" height="30" as="geometry" />
        </mxCell>
        <mxCell id="LFD4L2ISdzCojTMqFrCi-6" value="C" style="rounded=0;whiteSpace=wrap;html=1;" vertex="1" parent="VSIo94IfT64aYqF4Eojm-62">
          <mxGeometry x="50" y="10" width="20" height="20" as="geometry" />
        </mxCell>
        <mxCell id="VSIo94IfT64aYqF4Eojm-65" value="" style="endArrow=none;html=1;rounded=0;exitX=1;exitY=0.512;exitDx=0;exitDy=0;exitPerimeter=0;entryX=0.498;entryY=0.996;entryDx=0;entryDy=0;entryPerimeter=0;strokeWidth=2;" parent="1" source="VSIo94IfT64aYqF4Eojm-60" target="VSIo94IfT64aYqF4Eojm-51" edge="1">
          <mxGeometry width="50" height="50" relative="1" as="geometry">
            <mxPoint x="600" y="830" as="sourcePoint" />
            <mxPoint x="650" y="780" as="targetPoint" />
            <Array as="points">
              <mxPoint x="650" y="880" />
            </Array>
          </mxGeometry>
        </mxCell>
        <mxCell id="VSIo94IfT64aYqF4Eojm-66" value="" style="ellipse;whiteSpace=wrap;html=1;aspect=fixed;" parent="1" vertex="1">
          <mxGeometry x="540" y="850" width="10" height="10" as="geometry" />
        </mxCell>
        <mxCell id="VSIo94IfT64aYqF4Eojm-67" style="edgeStyle=orthogonalEdgeStyle;rounded=0;orthogonalLoop=1;jettySize=auto;html=1;entryX=0.508;entryY=0.485;entryDx=0;entryDy=0;entryPerimeter=0;" parent="1" source="VSIo94IfT64aYqF4Eojm-66" target="VSIo94IfT64aYqF4Eojm-60" edge="1">
          <mxGeometry relative="1" as="geometry" />
        </mxCell>
        <mxCell id="VSIo94IfT64aYqF4Eojm-68" value="" style="endArrow=none;html=1;rounded=0;entryX=0.5;entryY=1;entryDx=0;entryDy=0;exitX=0.5;exitY=0;exitDx=0;exitDy=0;" parent="1" source="VSIo94IfT64aYqF4Eojm-66" target="VSIo94IfT64aYqF4Eojm-61" edge="1">
          <mxGeometry width="50" height="50" relative="1" as="geometry">
            <mxPoint x="520" y="850" as="sourcePoint" />
            <mxPoint x="570" y="800" as="targetPoint" />
          </mxGeometry>
        </mxCell>
        <mxCell id="VSIo94IfT64aYqF4Eojm-69" value="" style="shape=mxgraph.pid.pumps_-_din.hydraulic;html=1;pointerEvents=1;align=center;verticalLabelPosition=bottom;verticalAlign=top;dashed=0;strokeWidth=2;direction=north;" parent="1" vertex="1">
          <mxGeometry x="425" y="850" width="60" height="60" as="geometry" />
        </mxCell>
        <mxCell id="VSIo94IfT64aYqF4Eojm-70" value="&lt;font style=&quot;font-size: 16px;&quot;&gt;NS&lt;br&gt;12.1&lt;/font&gt;&lt;br&gt; " style="html=1;outlineConnect=0;align=center;dashed=0;aspect=fixed;shape=mxgraph.pid2inst.discInst;mounting=room" parent="1" vertex="1">
          <mxGeometry x="430" y="704" width="50" height="50" as="geometry" />
        </mxCell>
        <mxCell id="VSIo94IfT64aYqF4Eojm-71" value="M" style="dashed=0;outlineConnect=0;align=center;html=1;shape=mxgraph.pid.engines.electric_motor;fontSize=16;aspect=fixed;" parent="1" vertex="1">
          <mxGeometry x="430" y="775" width="50" height="50" as="geometry" />
        </mxCell>
        <mxCell id="VSIo94IfT64aYqF4Eojm-72" value="" style="shape=link;html=1;rounded=0;exitX=0.5;exitY=1;exitDx=0;exitDy=0;exitPerimeter=0;entryX=1.003;entryY=0.499;entryDx=0;entryDy=0;entryPerimeter=0;" parent="1" source="VSIo94IfT64aYqF4Eojm-71" target="VSIo94IfT64aYqF4Eojm-69" edge="1">
          <mxGeometry width="100" relative="1" as="geometry">
            <mxPoint x="510" y="865" as="sourcePoint" />
            <mxPoint x="610" y="865" as="targetPoint" />
          </mxGeometry>
        </mxCell>
        <mxCell id="VSIo94IfT64aYqF4Eojm-73" value="" style="endArrow=none;html=1;rounded=0;entryX=0.5;entryY=1;entryDx=0;entryDy=0;exitX=0.5;exitY=0;exitDx=0;exitDy=0;exitPerimeter=0;" parent="1" source="VSIo94IfT64aYqF4Eojm-71" target="VSIo94IfT64aYqF4Eojm-70" edge="1">
          <mxGeometry width="50" height="50" relative="1" as="geometry">
            <mxPoint x="460" y="805" as="sourcePoint" />
            <mxPoint x="510" y="755" as="targetPoint" />
          </mxGeometry>
        </mxCell>
        <mxCell id="VSIo94IfT64aYqF4Eojm-74" value="" style="endArrow=none;html=1;rounded=0;entryX=-0.003;entryY=0.502;entryDx=0;entryDy=0;entryPerimeter=0;exitX=0.5;exitY=1;exitDx=0;exitDy=0;exitPerimeter=0;strokeWidth=2;" parent="1" source="VSIo94IfT64aYqF4Eojm-69" target="VSIo94IfT64aYqF4Eojm-60" edge="1">
          <mxGeometry width="50" height="50" relative="1" as="geometry">
            <mxPoint x="480" y="915" as="sourcePoint" />
            <mxPoint x="530" y="865" as="targetPoint" />
          </mxGeometry>
        </mxCell>
        <mxCell id="VSIo94IfT64aYqF4Eojm-75" value="" style="endArrow=none;html=1;rounded=0;entryX=0.5;entryY=0;entryDx=0;entryDy=0;entryPerimeter=0;strokeWidth=2;" parent="1" target="VSIo94IfT64aYqF4Eojm-69" edge="1">
          <mxGeometry width="50" height="50" relative="1" as="geometry">
            <mxPoint x="360" y="880" as="sourcePoint" />
            <mxPoint x="410" y="870" as="targetPoint" />
          </mxGeometry>
        </mxCell>
        <mxCell id="VSIo94IfT64aYqF4Eojm-76" value="PL12" style="text;strokeColor=none;align=center;fillColor=none;html=1;verticalAlign=middle;whiteSpace=wrap;rounded=0;fontStyle=1" parent="1" vertex="1">
          <mxGeometry x="425" y="910" width="60" height="30" as="geometry" />
        </mxCell>
        <mxCell id="VSIo94IfT64aYqF4Eojm-77" value="CA603" style="text;strokeColor=none;align=center;fillColor=none;html=1;verticalAlign=middle;whiteSpace=wrap;rounded=0;fontStyle=1" parent="1" vertex="1">
          <mxGeometry x="330" y="890" width="60" height="30" as="geometry" />
        </mxCell>
        <mxCell id="VSIo94IfT64aYqF4Eojm-86" style="edgeStyle=orthogonalEdgeStyle;rounded=0;orthogonalLoop=1;jettySize=auto;html=1;entryX=0.5;entryY=0;entryDx=0;entryDy=0;dashed=1;" parent="1" source="VSIo94IfT64aYqF4Eojm-78" target="VSIo94IfT64aYqF4Eojm-43" edge="1">
          <mxGeometry relative="1" as="geometry" />
        </mxCell>
        <mxCell id="VSIo94IfT64aYqF4Eojm-78" value="&lt;table cellpadding=&quot;4&quot; cellspacing=&quot;0&quot; border=&quot;0&quot; style=&quot;font-size: 16px; width: 100%; height: 100%;&quot;&gt;&lt;tbody style=&quot;font-size: 16px;&quot;&gt;&lt;tr style=&quot;font-size: 16px;&quot;&gt;&lt;td style=&quot;font-size: 16px;&quot;&gt;UC&lt;/td&gt;&lt;/tr&gt;&lt;tr style=&quot;font-size: 16px;&quot;&gt;&lt;td style=&quot;font-size: 16px;&quot;&gt;22.2&lt;br&gt;&lt;/td&gt;&lt;/tr&gt;&lt;/tbody&gt;&lt;/table&gt; " style="html=1;outlineConnect=0;align=center;dashed=0;aspect=fixed;shape=mxgraph.pid2inst.compFunc;mounting=room;fontSize=16;" parent="1" vertex="1">
          <mxGeometry x="380" y="120" width="50" height="50" as="geometry" />
        </mxCell>
        <mxCell id="VSIo94IfT64aYqF4Eojm-88" style="edgeStyle=orthogonalEdgeStyle;rounded=0;orthogonalLoop=1;jettySize=auto;html=1;entryX=0.5;entryY=0;entryDx=0;entryDy=0;dashed=1;" parent="1" source="VSIo94IfT64aYqF4Eojm-84" target="VSIo94IfT64aYqF4Eojm-70" edge="1">
          <mxGeometry relative="1" as="geometry" />
        </mxCell>
        <mxCell id="VSIo94IfT64aYqF4Eojm-84" value="&lt;table cellpadding=&quot;4&quot; cellspacing=&quot;0&quot; border=&quot;0&quot; style=&quot;font-size: 16px; width: 100%; height: 100%;&quot;&gt;&lt;tbody style=&quot;font-size: 16px;&quot;&gt;&lt;tr style=&quot;font-size: 16px;&quot;&gt;&lt;td style=&quot;font-size: 16px;&quot;&gt;UC&lt;/td&gt;&lt;/tr&gt;&lt;tr style=&quot;font-size: 16px;&quot;&gt;&lt;td style=&quot;font-size: 16px;&quot;&gt;12.3&lt;br&gt;&lt;/td&gt;&lt;/tr&gt;&lt;/tbody&gt;&lt;/table&gt; " style="html=1;outlineConnect=0;align=center;dashed=0;aspect=fixed;shape=mxgraph.pid2inst.compFunc;mounting=room;fontSize=16;" parent="1" vertex="1">
          <mxGeometry x="430" y="570" width="50" height="50" as="geometry" />
        </mxCell>
        <mxCell id="VSIo94IfT64aYqF4Eojm-85" style="edgeStyle=orthogonalEdgeStyle;rounded=0;orthogonalLoop=1;jettySize=auto;html=1;entryX=0.5;entryY=0;entryDx=0;entryDy=0;dashed=1;" parent="1" source="VSIo94IfT64aYqF4Eojm-17" target="VSIo94IfT64aYqF4Eojm-78" edge="1">
          <mxGeometry relative="1" as="geometry">
            <Array as="points">
              <mxPoint x="685" y="100" />
              <mxPoint x="405" y="100" />
            </Array>
          </mxGeometry>
        </mxCell>
        <mxCell id="VSIo94IfT64aYqF4Eojm-87" style="edgeStyle=orthogonalEdgeStyle;rounded=0;orthogonalLoop=1;jettySize=auto;html=1;dashed=1;" parent="1" source="VSIo94IfT64aYqF4Eojm-63" target="VSIo94IfT64aYqF4Eojm-84" edge="1">
          <mxGeometry relative="1" as="geometry" />
        </mxCell>
        <mxCell id="IkRM6xhSilAh9bvI-W9X-2" style="edgeStyle=orthogonalEdgeStyle;rounded=0;orthogonalLoop=1;jettySize=auto;html=1;entryX=0;entryY=0.5;entryDx=0;entryDy=0;dashed=1;" parent="1" source="VSIo94IfT64aYqF4Eojm-89" target="VSIo94IfT64aYqF4Eojm-84" edge="1">
          <mxGeometry relative="1" as="geometry">
            <Array as="points">
              <mxPoint x="385" y="595" />
            </Array>
          </mxGeometry>
        </mxCell>
        <mxCell id="VSIo94IfT64aYqF4Eojm-89" value="TIRA&lt;br style=&quot;font-size: 16px;&quot;&gt;12.2&lt;br style=&quot;font-size: 16px;&quot;&gt; " style="html=1;outlineConnect=0;align=center;dashed=0;aspect=fixed;shape=mxgraph.pid2inst.discInst;mounting=room;fontSize=16;" parent="1" vertex="1">
          <mxGeometry x="360" y="704" width="50" height="50" as="geometry" />
        </mxCell>
        <mxCell id="VSIo94IfT64aYqF4Eojm-90" value="" style="endArrow=none;html=1;rounded=0;entryX=0.5;entryY=1;entryDx=0;entryDy=0;" parent="1" target="VSIo94IfT64aYqF4Eojm-89" edge="1">
          <mxGeometry width="50" height="50" relative="1" as="geometry">
            <mxPoint x="385" y="815" as="sourcePoint" />
            <mxPoint x="385" y="760" as="targetPoint" />
          </mxGeometry>
        </mxCell>
        <mxCell id="IkRM6xhSilAh9bvI-W9X-1" value="" style="endArrow=none;html=1;rounded=0;" parent="1" edge="1">
          <mxGeometry width="50" height="50" relative="1" as="geometry">
            <mxPoint x="385" y="815" as="sourcePoint" />
            <mxPoint x="432" y="862" as="targetPoint" />
          </mxGeometry>
        </mxCell>
        <mxCell id="LFD4L2ISdzCojTMqFrCi-1" value="B" style="rounded=0;whiteSpace=wrap;html=1;" vertex="1" parent="1">
          <mxGeometry x="425" y="345" width="20" height="20" as="geometry" />
        </mxCell>
        <mxCell id="LFD4L2ISdzCojTMqFrCi-2" value="B" style="rounded=0;whiteSpace=wrap;html=1;" vertex="1" parent="1">
          <mxGeometry x="470" y="750" width="20" height="20" as="geometry" />
        </mxCell>
        <mxCell id="LFD4L2ISdzCojTMqFrCi-3" value="C" style="rounded=0;whiteSpace=wrap;html=1;" vertex="1" parent="1">
          <mxGeometry x="395" y="754" width="20" height="20" as="geometry" />
        </mxCell>
      </root>
    </mxGraphModel>
  </diagram>
</mxfile>
